# xmcd
#
# Track frame offsets:
#	183
#	12093
#	30358
#	44693
#	56368
#	68055
#	83108
#	104333
#	116400
#	129653
#	142888
#	155450
#	174018
#	189713
#	201210
#	214420
#
# Disc length: 3031 seconds
#
# Revision: 0
# Processed by: cddbd v1.5.1PL0 Copyright (c) Steve Scherf et al.
# Submitted via: MusicWizard 6.0.0
#
DISCID=d50bd510
DTITLE=Various Artist - TRUCKER HIT-FESTIVAL
DYEAR=1990
DGENRE=Country
TTITLE0=ASTOR TOM - GUTE FAHRT AUF ALLEN STRASSEN
TTITLE1=WESTERN UNION - ICH SEH` DIE GROOSE WELT NUR DURCH
TTITLE2=NASHVILLE MUSIC COMPANY - DESPERADOS UNTERWEGS
TTITLE3=ASTOR TOM - UND DANN KAM ER VOR GERICHT
TTITLE4=PAULSEN RALF - BIN NUR EIN TRAMP
TTITLE5=ASTOR TOM - IMMER AUF ACHSE
TTITLE6=GABRIEL GUNTER - ICH LIEB` DIE BULLE
TTITLE7=ASTOR TOM - TRUCKER HÍR`N DEN COUNTRY CLUB
TTITLE8=NASHVILLE MUSIC COMPANY - MEILENWEIT
TTITLE9=ASTOR TOM and BELLAMY BROTHers - REDNECK RIVIERA
TTITLE10=FLOPHOUSE STRING BAND - FERNFAHRERBLICK
TTITLE11=ASTOR TOM - DU MUSST WIEDER HINAUS
TTITLE12=BOSS BAND - WESTERN WILL
TTITLE13=ASTOR TOM - FREIE FAHRT IN GANZ EUROPA
TTITLE14=NASHVILLE MUSIC COMPANY - ICH MUSS WIEDER AUF DIE STRASSE SEH
TTITLE15=ASTOR TOM - HEY LIEBER SCHTZENGEL
EXTD=
EXTT0=
EXTT1=
EXTT2=
EXTT3=
EXTT4=
EXTT5=
EXTT6=
EXTT7=
EXTT8=
EXTT9=
EXTT10=
EXTT11=
EXTT12=
EXTT13=
EXTT14=
EXTT15=
PLAYORDER=
